# Blender v2.79 (sub 0) OBJ File: 'test_room.blend'
# www.blender.org
mtllib test_room.mtl
o Cylinder_Cylinder.002
v -0.856440 -0.163911 0.786790
v -0.856440 4.025799 0.786790
v -0.700368 -0.163911 0.802162
v -0.700368 4.025799 0.802162
v -0.550294 -0.163911 0.847687
v -0.550294 4.025799 0.847687
v -0.411984 -0.163911 0.921615
v -0.411984 4.025799 0.921615
v -0.290755 -0.163911 1.021105
v -0.290755 4.025799 1.021105
v -0.191265 -0.163911 1.142334
v -0.191265 4.025799 1.142334
v -0.117337 -0.163911 1.280644
v -0.117337 4.025799 1.280644
v -0.071812 -0.163911 1.430718
v -0.071812 4.025799 1.430718
v -0.056440 -0.163911 1.586790
v -0.056440 4.025799 1.586790
v -0.071812 -0.163911 1.742863
v -0.071812 4.025799 1.742863
v -0.117337 -0.163911 1.892937
v -0.117337 4.025799 1.892937
v -0.191265 -0.163911 2.031247
v -0.191265 4.025799 2.031247
v -0.290755 -0.163911 2.152476
v -0.290755 4.025799 2.152476
v -0.411984 -0.163911 2.251966
v -0.411984 4.025799 2.251966
v -0.550294 -0.163911 2.325894
v -0.550294 4.025799 2.325894
v -0.700368 -0.163911 2.371419
v -0.700368 4.025799 2.371419
v -0.856441 -0.163911 2.386791
v -0.856441 4.025799 2.386791
v -1.012513 -0.163911 2.371418
v -1.012513 4.025799 2.371418
v -1.162588 -0.163911 2.325894
v -1.162588 4.025799 2.325894
v -1.300897 -0.163911 2.251966
v -1.300897 4.025799 2.251966
v -1.422126 -0.163911 2.152476
v -1.422126 4.025799 2.152476
v -1.521616 -0.163911 2.031246
v -1.521616 4.025799 2.031246
v -1.595544 -0.163911 1.892937
v -1.595544 4.025799 1.892937
v -1.641069 -0.163911 1.742862
v -1.641069 4.025799 1.742862
v -1.656440 -0.163911 1.586790
v -1.656440 4.025799 1.586790
v -1.641069 -0.163911 1.430717
v -1.641069 4.025799 1.430717
v -1.595544 -0.163911 1.280643
v -1.595544 4.025799 1.280643
v -1.521616 -0.163911 1.142333
v -1.521616 4.025799 1.142333
v -1.422125 -0.163911 1.021104
v -1.422125 4.025799 1.021104
v -1.300896 -0.163911 0.921614
v -1.300896 4.025799 0.921614
v -1.162586 -0.163911 0.847686
v -1.162586 4.025799 0.847686
v -1.012511 -0.163911 0.802162
v -1.012511 4.025799 0.802162
v -0.856440 -0.163911 0.786790
v -0.700368 -0.163911 0.802162
v -0.700368 4.025799 0.802162
v -0.856440 4.025799 0.786790
v -0.550294 -0.163911 0.847687
v -0.550294 4.025799 0.847687
v -0.411984 -0.163911 0.921615
v -0.411984 4.025799 0.921615
v -0.290755 -0.163911 1.021105
v -0.290755 4.025799 1.021105
v -0.191265 -0.163911 1.142334
v -0.191265 4.025799 1.142334
v -0.117337 -0.163911 1.280644
v -0.117337 4.025799 1.280644
v -0.071812 -0.163911 1.430718
v -0.071812 4.025799 1.430718
v -0.056440 -0.163911 1.586790
v -0.056440 4.025799 1.586790
v -0.071812 -0.163911 1.742863
v -0.071812 4.025799 1.742863
v -0.117337 -0.163911 1.892937
v -0.117337 4.025799 1.892937
v -0.191265 -0.163911 2.031247
v -0.191265 4.025799 2.031247
v -0.290755 -0.163911 2.152476
v -0.290755 4.025799 2.152476
v -0.411984 -0.163911 2.251966
v -0.411984 4.025799 2.251966
v -0.550294 -0.163911 2.325894
v -0.550294 4.025799 2.325894
v -0.700368 -0.163911 2.371419
v -0.700368 4.025799 2.371419
v -0.856441 -0.163911 2.386791
v -0.856441 4.025799 2.386791
v -1.012513 -0.163911 2.371418
v -1.012513 4.025799 2.371418
v -1.162588 -0.163911 2.325894
v -1.162588 4.025799 2.325894
v -1.300897 -0.163911 2.251966
v -1.300897 4.025799 2.251966
v -1.422126 -0.163911 2.152476
v -1.422126 4.025799 2.152476
v -1.521616 -0.163911 2.031246
v -1.521616 4.025799 2.031246
v -1.595544 -0.163911 1.892937
v -1.595544 4.025799 1.892937
v -1.641069 -0.163911 1.742862
v -1.641069 4.025799 1.742862
v -1.656440 -0.163911 1.586790
v -1.656440 4.025799 1.586790
v -1.641069 -0.163911 1.430717
v -1.641069 4.025799 1.430717
v -1.595544 -0.163911 1.280643
v -1.595544 4.025799 1.280643
v -1.521616 -0.163911 1.142333
v -1.521616 4.025799 1.142333
v -1.422125 -0.163911 1.021104
v -1.422125 4.025799 1.021104
v -1.300896 -0.163911 0.921614
v -1.300896 4.025799 0.921614
v -1.162586 -0.163911 0.847686
v -1.162586 4.025799 0.847686
v -1.012511 -0.163911 0.802162
v -1.012511 4.025799 0.802162
vt 0.302395 0.000000
vt 0.326450 0.523820
vt 0.302395 0.523820
vt 0.326449 0.000000
vt 0.349108 0.523820
vt 0.349108 0.000000
vt 0.369501 0.523820
vt 0.369501 0.000000
vt 0.386843 0.523820
vt 0.193422 0.523820
vt 0.176079 0.000000
vt 0.193422 0.000000
vt 0.176079 0.523820
vt 0.155687 0.000000
vt 0.155687 0.523820
vt 0.133028 0.000000
vt 0.133028 0.523820
vt 0.108974 0.000000
vt 0.108974 0.523820
vt 0.084448 0.000000
vt 0.084448 0.523820
vt 0.060393 0.000000
vt 0.060393 0.523820
vt 0.037735 0.000000
vt 0.037735 0.523820
vt 0.017342 0.000000
vt 0.017342 0.523820
vt 0.000000 0.000000
vt 0.545580 0.000000
vt 0.565973 0.523820
vt 0.545580 0.523820
vt 0.565972 0.000000
vt 0.588631 0.523820
vt 0.588631 0.000000
vt 0.612686 0.523820
vt 0.612686 0.000000
vt 0.637212 0.523820
vt 0.637211 0.000000
vt 0.661266 0.523820
vt 0.661266 0.000000
vt 0.683925 0.523820
vt 0.683925 0.000000
vt 0.704317 0.523820
vt 0.545580 0.523820
vt 0.525188 0.000000
vt 0.545580 0.000000
vt 0.525188 0.523820
vt 0.502529 0.000000
vt 0.502529 0.523820
vt 0.478474 0.000000
vt 0.478474 0.523820
vt 0.453949 0.000000
vt 0.453949 0.523820
vt 0.429894 0.000000
vt 0.429894 0.523820
vt 0.407235 0.000000
vt 0.407235 0.523820
vt 0.386843 0.000000
vt 0.193422 0.000000
vt 0.210764 0.523820
vt 0.193422 0.523820
vt 0.210764 0.000000
vt 0.231156 0.523820
vt 0.231156 0.000000
vt 0.253815 0.523820
vt 0.611476 0.523820
vt 0.720450 0.727558
vt 0.636002 0.772666
vt 0.253815 0.000000
vt 0.277870 0.523820
vt 0.277869 0.000000
vt 0.494447 0.611950
vt 0.411043 0.767885
vt 0.255003 0.684536
vt 0.386843 0.000000
vt 0.000000 0.523820
vt 0.704317 0.000000
vt 0.386843 0.523820
vt 0.611476 0.772666
vt 0.587422 0.767885
vt 0.564763 0.758506
vt 0.544371 0.744889
vt 0.527028 0.727558
vt 0.513403 0.707180
vt 0.504017 0.684536
vt 0.499232 0.660498
vt 0.499232 0.635988
vt 0.504017 0.611950
vt 0.513402 0.589307
vt 0.527028 0.568928
vt 0.544371 0.551597
vt 0.564763 0.537981
vt 0.587422 0.528601
vt 0.636002 0.523820
vt 0.703108 0.551597
vt 0.660056 0.528601
vt 0.682715 0.537981
vt 0.720450 0.568928
vt 0.734076 0.589306
vt 0.743461 0.611950
vt 0.748246 0.635988
vt 0.748246 0.660498
vt 0.743461 0.684536
vt 0.734076 0.707180
vt 0.703108 0.744889
vt 0.682715 0.758505
vt 0.660056 0.767885
vt 0.250219 0.660498
vt 0.250219 0.635988
vt 0.255003 0.611950
vt 0.264389 0.589307
vt 0.278015 0.568928
vt 0.295357 0.551597
vt 0.315749 0.537981
vt 0.338408 0.528601
vt 0.362462 0.523820
vt 0.386988 0.523820
vt 0.411043 0.528601
vt 0.433701 0.537980
vt 0.454094 0.551597
vt 0.471436 0.568928
vt 0.485062 0.589306
vt 0.499232 0.635988
vt 0.499232 0.660498
vt 0.494447 0.684536
vt 0.485062 0.707180
vt 0.471436 0.727558
vt 0.454094 0.744889
vt 0.433701 0.758506
vt 0.386988 0.772666
vt 0.362462 0.772666
vt 0.338408 0.767885
vt 0.315749 0.758505
vt 0.295357 0.744889
vt 0.278015 0.727558
vt 0.264389 0.707179
vn 0.0980 0.0000 -0.9952
vn 0.2903 0.0000 -0.9569
vn 0.4714 0.0000 -0.8819
vn 0.6344 0.0000 -0.7730
vn 0.7730 0.0000 -0.6344
vn 0.8819 0.0000 -0.4714
vn 0.9569 0.0000 -0.2903
vn 0.9952 0.0000 -0.0980
vn 0.9952 0.0000 0.0980
vn 0.9569 0.0000 0.2903
vn 0.8819 0.0000 0.4714
vn 0.7730 0.0000 0.6344
vn 0.6344 0.0000 0.7730
vn 0.4714 0.0000 0.8819
vn 0.2903 0.0000 0.9569
vn 0.0980 0.0000 0.9952
vn -0.0980 0.0000 0.9952
vn -0.2903 0.0000 0.9569
vn -0.4714 0.0000 0.8819
vn -0.6344 0.0000 0.7730
vn -0.7730 0.0000 0.6344
vn -0.8819 0.0000 0.4714
vn -0.9569 0.0000 0.2903
vn -0.9952 0.0000 0.0980
vn -0.9952 0.0000 -0.0980
vn -0.9569 0.0000 -0.2903
vn -0.8819 0.0000 -0.4714
vn -0.7730 0.0000 -0.6344
vn -0.6344 0.0000 -0.7730
vn -0.4714 0.0000 -0.8819
vn 0.0000 1.0000 0.0000
vn -0.2903 0.0000 -0.9569
vn -0.0980 0.0000 -0.9952
vn 0.0000 -1.0000 -0.0000
usemtl None
s off
f 68/1/1 66/2/1 65/3/1
f 67/4/2 69/5/2 66/2/2
f 70/6/3 71/7/3 69/5/3
f 72/8/4 73/9/4 71/7/4
f 74/10/5 75/11/5 73/12/5
f 76/13/6 77/14/6 75/11/6
f 78/15/7 79/16/7 77/14/7
f 80/17/8 81/18/8 79/16/8
f 82/19/9 83/20/9 81/18/9
f 84/21/10 85/22/10 83/20/10
f 86/23/11 87/24/11 85/22/11
f 88/25/12 89/26/12 87/24/12
f 90/27/13 91/28/13 89/26/13
f 92/29/14 93/30/14 91/31/14
f 94/32/15 95/33/15 93/30/15
f 96/34/16 97/35/16 95/33/16
f 98/36/17 99/37/17 97/35/17
f 100/38/18 101/39/18 99/37/18
f 102/40/19 103/41/19 101/39/19
f 104/42/20 105/43/20 103/41/20
f 106/44/21 107/45/21 105/46/21
f 108/47/22 109/48/22 107/45/22
f 110/49/23 111/50/23 109/48/23
f 112/51/24 113/52/24 111/50/24
f 114/53/25 115/54/25 113/52/25
f 116/55/26 117/56/26 115/54/26
f 118/57/27 119/58/27 117/56/27
f 120/59/28 121/60/28 119/61/28
f 122/62/29 123/63/29 121/60/29
f 124/64/30 125/65/30 123/63/30
f 38/66/31 14/67/31 6/68/31
f 126/69/32 127/70/32 125/65/32
f 64/71/33 65/3/33 127/70/33
f 31/72/34 47/73/34 63/74/34
f 68/1/1 67/4/1 66/2/1
f 67/4/2 70/6/2 69/5/2
f 70/6/3 72/8/3 71/7/3
f 72/8/4 74/75/4 73/9/4
f 74/10/5 76/13/5 75/11/5
f 76/13/6 78/15/6 77/14/6
f 78/15/7 80/17/7 79/16/7
f 80/17/8 82/19/8 81/18/8
f 82/19/9 84/21/9 83/20/9
f 84/21/10 86/23/10 85/22/10
f 86/23/11 88/25/11 87/24/11
f 88/25/12 90/27/12 89/26/12
f 90/27/13 92/76/13 91/28/13
f 92/29/14 94/32/14 93/30/14
f 94/32/15 96/34/15 95/33/15
f 96/34/16 98/36/16 97/35/16
f 98/36/17 100/38/17 99/37/17
f 100/38/18 102/40/18 101/39/18
f 102/40/19 104/42/19 103/41/19
f 104/42/20 106/77/20 105/43/20
f 106/44/21 108/47/21 107/45/21
f 108/47/22 110/49/22 109/48/22
f 110/49/23 112/51/23 111/50/23
f 112/51/24 114/53/24 113/52/24
f 114/53/25 116/55/25 115/54/25
f 116/55/26 118/57/26 117/56/26
f 118/57/27 120/78/27 119/58/27
f 120/59/28 122/62/28 121/60/28
f 122/62/29 124/64/29 123/63/29
f 124/64/30 126/69/30 125/65/30
f 6/68/31 4/79/31 2/80/31
f 2/80/31 128/81/31 6/68/31
f 62/82/31 60/83/31 58/84/31
f 58/84/31 56/85/31 54/86/31
f 54/86/31 52/87/31 50/88/31
f 50/88/31 48/89/31 54/86/31
f 46/90/31 44/91/31 38/66/31
f 42/92/31 40/93/31 38/66/31
f 38/66/31 36/94/31 30/95/31
f 34/96/31 32/97/31 30/95/31
f 30/95/31 28/98/31 26/99/31
f 26/99/31 24/100/31 22/101/31
f 22/101/31 20/102/31 18/103/31
f 18/103/31 16/104/31 22/101/31
f 14/67/31 12/105/31 10/106/31
f 10/106/31 8/107/31 6/68/31
f 6/68/31 128/81/31 62/82/31
f 62/82/31 58/84/31 54/86/31
f 54/86/31 48/89/31 46/90/31
f 44/91/31 42/92/31 38/66/31
f 36/94/31 34/96/31 30/95/31
f 30/95/31 26/99/31 22/101/31
f 22/101/31 16/104/31 14/67/31
f 14/67/31 10/106/31 6/68/31
f 6/68/31 62/82/31 54/86/31
f 54/86/31 46/90/31 6/68/31
f 38/66/31 30/95/31 22/101/31
f 22/101/31 14/67/31 38/66/31
f 6/68/31 46/90/31 38/66/31
f 126/69/32 64/71/32 127/70/32
f 64/71/33 68/1/33 65/3/33
f 63/74/34 1/108/34 3/109/34
f 3/109/34 5/110/34 7/111/34
f 7/111/34 9/112/34 11/113/34
f 11/113/34 13/114/34 7/111/34
f 15/115/34 17/116/34 19/117/34
f 19/117/34 21/118/34 23/119/34
f 23/119/34 25/120/34 31/72/34
f 27/121/34 29/122/34 31/72/34
f 31/72/34 33/123/34 35/124/34
f 35/124/34 37/125/34 39/126/34
f 39/126/34 41/127/34 43/128/34
f 43/128/34 45/129/34 47/73/34
f 47/73/34 49/130/34 51/131/34
f 51/131/34 53/132/34 47/73/34
f 55/133/34 57/134/34 63/74/34
f 59/135/34 61/136/34 63/74/34
f 63/74/34 3/109/34 7/111/34
f 7/111/34 13/114/34 15/115/34
f 15/115/34 19/117/34 23/119/34
f 25/120/34 27/121/34 31/72/34
f 31/72/34 35/124/34 47/73/34
f 39/126/34 43/128/34 47/73/34
f 47/73/34 53/132/34 55/133/34
f 57/134/34 59/135/34 63/74/34
f 63/74/34 7/111/34 31/72/34
f 15/115/34 23/119/34 31/72/34
f 35/124/34 39/126/34 47/73/34
f 47/73/34 55/133/34 63/74/34
f 7/111/34 15/115/34 31/72/34
o Room_Cube
v 5.000000 -0.513809 -5.000000
v 5.000000 -0.513809 5.000000
v -5.000000 -0.513809 4.999999
v -4.999998 -0.513809 -5.000002
v 4.545757 4.486191 -4.545752
v 4.545752 4.486191 4.545757
v -4.545756 4.486191 4.545753
v -4.545754 4.486191 -4.545754
v 5.000002 4.486191 -4.999997
v 4.999997 4.486191 5.000003
v -5.000000 4.486191 -5.000000
v -5.000002 4.486191 4.999998
v 4.545757 -0.001025 -4.545752
v 4.545752 -0.001025 4.545757
v -4.545754 -0.001025 -4.545754
v -4.545756 -0.001025 4.545753
v 5.000000 -0.513809 -5.000000
v 5.000000 -0.513809 -5.000000
v 5.000000 -0.513809 5.000000
v 5.000000 -0.513809 5.000000
v -4.999998 -0.513809 -5.000002
v -4.999998 -0.513809 -5.000002
v 5.000002 4.486191 -4.999997
v 5.000002 4.486191 -4.999997
v 5.000002 4.486191 -4.999997
v -5.000000 -0.513809 4.999999
v -5.000000 -0.513809 4.999999
v 4.999997 4.486191 5.000003
v 4.999997 4.486191 5.000003
v 4.999997 4.486191 5.000003
v -5.000002 4.486191 4.999998
v -5.000002 4.486191 4.999998
v -5.000002 4.486191 4.999998
v -5.000000 4.486191 -5.000000
v -5.000000 4.486191 -5.000000
v -5.000000 4.486191 -5.000000
v 4.545757 4.486191 -4.545752
v 4.545757 4.486191 -4.545752
v 4.545757 4.486191 -4.545752
v 4.545752 4.486191 4.545757
v 4.545752 4.486191 4.545757
v 4.545752 4.486191 4.545757
v -4.545754 4.486191 -4.545754
v -4.545754 4.486191 -4.545754
v -4.545754 4.486191 -4.545754
v -4.545756 4.486191 4.545753
v -4.545756 4.486191 4.545753
v -4.545756 4.486191 4.545753
v 4.545757 -0.001025 -4.545752
v 4.545757 -0.001025 -4.545752
v 4.545752 -0.001025 4.545757
v 4.545752 -0.001025 4.545757
v -4.545754 -0.001025 -4.545754
v -4.545754 -0.001025 -4.545754
v -4.545756 -0.001025 4.545753
v -4.545756 -0.001025 4.545753
vt 0.000000 0.523820
vt 0.250219 0.773870
vt 0.000000 0.773870
vt 0.587054 0.772666
vt 0.699333 1.000000
vt 0.587054 1.000000
vt 0.704317 0.477384
vt 0.829426 0.227334
vt 0.829426 0.477384
vt 0.873355 0.773870
vt 0.998464 0.523820
vt 0.998464 0.773870
vt 0.829426 0.477384
vt 0.954536 0.227334
vt 0.954536 0.477384
vt 0.748246 0.773870
vt 0.873355 0.523820
vt 0.873355 0.773870
vt 1.000000 0.466026
vt 0.988634 0.227334
vt 1.000000 0.238692
vt 0.977268 0.238692
vt 0.988634 0.477384
vt 0.977268 0.466026
vt 0.965902 0.466026
vt 0.954536 0.227334
vt 0.965902 0.238692
vt 0.977268 0.466026
vt 0.965902 0.227334
vt 0.977268 0.238692
vt 0.931804 0.227334
vt 0.704317 0.000000
vt 0.931804 0.000000
vt 0.362497 1.000000
vt 0.250219 0.772666
vt 0.362497 0.772666
vt 0.474776 1.000000
vt 0.362497 0.772666
vt 0.474776 0.772666
vt 0.474776 0.772666
vt 0.587054 1.000000
vt 0.474776 1.000000
vt 0.250219 0.523820
vt 0.699333 0.772666
vt 0.704317 0.227334
vt 0.873355 0.523820
vt 0.829426 0.227334
vt 0.748246 0.523820
vt 0.988634 0.477384
vt 0.988634 0.227334
vt 0.954536 0.477384
vt 0.965902 0.477384
vt 0.704317 0.227334
vt 0.250219 1.000000
vt 0.362497 1.000000
vt 0.587054 0.772666
vn 0.0000 -1.0000 0.0000
vn 1.0000 0.0000 0.0000
vn 0.0000 0.0000 1.0000
vn -1.0000 0.0000 0.0000
vn 0.0000 0.0000 -1.0000
vn 0.0000 1.0000 0.0000
usemtl Material
s 1
f 145/137/35 154/138/35 149/139/35
f 175/140/36 182/141/36 172/142/36
f 151/143/36 148/144/36 146/145/36
f 157/146/37 155/147/37 130/148/37
f 160/149/38 150/150/38 131/151/38
f 129/152/39 163/153/39 152/154/39
f 168/155/40 153/156/40 165/157/40
f 166/158/40 164/159/40 171/160/40
f 174/161/40 138/162/40 169/163/40
f 173/164/40 140/165/40 176/166/40
f 181/167/40 179/168/40 177/169/40
f 136/170/37 178/171/37 167/172/37
f 170/173/39 144/174/39 135/175/39
f 133/176/38 142/177/38 134/178/38
f 145/137/35 147/179/35 154/138/35
f 175/140/36 184/180/36 182/141/36
f 151/143/36 156/181/36 148/144/36
f 157/146/37 159/182/37 155/147/37
f 160/149/38 162/183/38 150/150/38
f 129/152/39 132/184/39 163/153/39
f 168/155/40 158/185/40 153/156/40
f 166/158/40 137/186/40 164/159/40
f 174/161/40 161/187/40 138/162/40
f 173/164/40 139/188/40 140/165/40
f 181/167/40 183/189/40 179/168/40
f 136/170/37 143/190/37 178/171/37
f 170/173/39 180/191/39 144/174/39
f 133/176/38 141/192/38 142/177/38
